# xmcd
#
# Track frame offsets:
#	150
#	16280
#	31221
#	45159
#	63284
#	76665
#	91439
#	107683
#	123648
#	139530
#	154618
#	175794
#	188625
#	199756
#	214809
#	226811
#	241613
#	252841
#	270158
#	281533
#
# Disc length: 3960 seconds
#
# Revision: 0
# Processed by: cddbd v1.5.1PL2 Copyright (c) Steve Scherf et al.
# Submitted via: SynApp - FreeCDDB Version: 2.0
#
DISCID=f20f7614
DTITLE=Glenn Miller - The Best of Glenn Miller
DYEAR=1900
DGENRE=A Cappella
TTITLE0=Glenn Miller - St. Louis Blues
TTITLE1=Stardust
TTITLE2=In the Mood
TTITLE3=I go Rythm
TTITLE4=Swing, Swing, Swing
TTITLE5=String of Pearls
TTITLE6=Moonlight Serenade
TTITLE7=American Patrol
TTITLE8=Sentimental Journy
TTITLE9=Tuxde Junction
TTITLE10=Indian Summer
TTITLE11=Chatanooga Choo Choo
TTITLE12=It Don´t Mena a Thing
TTITLE13=Night and Day
TTITLE14=Boogie Woogie
TTITLE15=Bugle Call Rag
TTITLE16=Smoke gets in your
TTITLE17=Yes my Darling
TTITLE18=Sleih Ride
TTITLE19=Over the Rainbow
EXTD=
EXTT0=
EXTT1=
EXTT2=
EXTT3=
EXTT4=
EXTT5=
EXTT6=
EXTT7=
EXTT8=
EXTT9=
EXTT10=
EXTT11=
EXTT12=
EXTT13=
EXTT14=
EXTT15=
EXTT16=
EXTT17=
EXTT18=
EXTT19=
PLAYORDER=
